<mxfile host="app.diagrams.net" modified="2023-07-20T03:26:53.687Z" agent="Mozilla/5.0 (iPad; CPU OS 16_5 like Mac OS X) AppleWebKit/605.1.15 (KHTML, like Gecko) CriOS/114.0.5735.124 Mobile/15E148 Safari/604.1" version="21.6.2" etag="xI3vTa1lRdzqKXPsV9rA" type="github">
  <diagram name="Page-1" id="_3N-SPi842J8x7I_6E2S">
    <mxGraphModel>
      <root>
        <mxCell id="0" />
        <mxCell id="1" parent="0" />
      </root>
    </mxGraphModel>
  </diagram>
</mxfile>
